HIERARCHY
ROOT hip
{
	OFFSET 0.000000 0.000000 0.000000
	CHANNELS 6 Xposition Yposition Zposition Xrotation Zrotation Yrotation 
	JOINT abdomen
	{
		OFFSET 0.000000 3.422050 0.000000
		CHANNELS 3 Xrotation Zrotation Yrotation 
		JOINT chest
		{
			OFFSET 0.000000 8.486693 -0.684411
			CHANNELS 3 Xrotation Zrotation Yrotation 
			JOINT neck
			{
				OFFSET 0.000000 10.266162 -0.273764
				CHANNELS 3 Xrotation Zrotation Yrotation 
				JOINT head
				{
					OFFSET 0.000000 3.148285 0.000000
					CHANNELS 3 Xrotation Zrotation Yrotation 
					End Site
					{
						OFFSET 0.000000 3.148289 0.000000
					}
				}
			}
			JOINT lCollar
			{
				OFFSET 3.422053 6.707223 -0.821293
				CHANNELS 3 Yrotation Zrotation Xrotation 
				JOINT lShldr
				{
					OFFSET 3.285171 0.000000 0.000000
					CHANNELS 3 Zrotation Yrotation Xrotation 
					JOINT lForeArm
					{
						OFFSET 10.129278 0.000000 0.000000
						CHANNELS 3 Yrotation Zrotation Xrotation 
						JOINT lHand
						{
							OFFSET 8.486692 0.000000 0.000000
							CHANNELS 3 Zrotation Yrotation Xrotation 
							End Site
							{
								OFFSET 4.106464 0.000000 0.000000
							}
						}
					}
				}
			}
			JOINT rCollar
			{
				OFFSET -3.558935 6.707223 -0.821293
				CHANNELS 3 Yrotation Zrotation Xrotation 
				JOINT rShldr
				{
					OFFSET -3.148289 0.000000 0.000000
					CHANNELS 3 Zrotation Yrotation Xrotation 
					JOINT rForeArm
					{
						OFFSET -10.266159 0.000000 0.000000
						CHANNELS 3 Yrotation Zrotation Xrotation 
						JOINT rHand
						{
							OFFSET -8.349810 0.000000 0.000000
							CHANNELS 3 Zrotation Yrotation Xrotation 
							End Site
							{
								OFFSET -4.106464 0.000000 0.000000
							}
						}
					}
				}
			}
		}
	}
	JOINT lThigh
	{
		OFFSET 5.338403 -1.642589 1.368821
		CHANNELS 3 Xrotation Zrotation Yrotation 
		JOINT lShin
		{
			OFFSET -2.053232 -20.121670 0.000000
			CHANNELS 3 Xrotation Zrotation Yrotation 
			JOINT lFoot
			{
				OFFSET 0.000000 -19.300380 -1.231939
				CHANNELS 3 Xrotation Yrotation Zrotation 
				End Site
				{
					OFFSET 0.000000 -2.463878 4.653993
				}
			}
		}
	}
	JOINT rThigh
	{
		OFFSET -5.338403 -1.642589 1.368821
		CHANNELS 3 Xrotation Zrotation Yrotation 
		JOINT rShin
		{
			OFFSET 2.053232 -20.121670 0.000000
			CHANNELS 3 Xrotation Zrotation Yrotation 
			JOINT rFoot
			{
				OFFSET 0.000000 -19.300380 -1.231939
				CHANNELS 3 Xrotation Yrotation Zrotation 
				End Site
				{
					OFFSET 0.000000 -2.463878 4.653993
				}
			}
		}
	}
}
MOTION
Frames: 19
Frame Time: 0.033264
19.995882 10.922924 16.823046 70.997055 0.000000 0.000000 51.485352 -0.723925 -0.580074 -32.433472 -0.627813 -0.449299 -28.756975 0.000000 0.000000 -22.912605 -0.055628 -0.001556 3.489007 -6.525773 -5.139090 -64.846542 -62.506367 -16.583298 -122.018135 -0.008075 53.997295 -7.188031 2.678932 4.707555 -3.645199 6.727796 -5.211683 64.881233 62.463337 -16.540213 121.995705 -0.005257 54.000729 7.296229 -2.602509 4.611751 -114.453232 57.080845 -36.694439 132.438538 -2.368854 -0.184923 17.525476 1.718366 4.884031 -114.462746 -57.084763 36.701576 132.438522 2.370645 0.180300 17.525291 -1.722353 -4.886950 
19.995882 10.922924 16.840166 70.997055 0.000000 0.000000 51.485352 -0.723925 -0.580074 -32.433472 -0.627813 -0.449299 -28.506765 0.000000 0.000000 -22.882608 -0.055624 -0.001553 3.302226 -6.596084 -4.876704 -64.627037 -62.483082 -16.790117 -122.018135 -0.008075 53.997295 -7.175230 2.537938 4.839097 -3.450753 6.786846 -4.945642 64.659584 62.442142 -16.749458 121.995705 -0.005257 54.000729 7.277512 -2.465846 4.748446 -114.453224 57.080841 -36.694435 132.438538 -2.368854 -0.184923 17.525476 1.718366 4.884031 -114.462746 -57.084763 36.701576 132.438522 2.370645 0.180300 17.525291 -1.722353 -4.886950 
19.995882 10.922924 16.857288 70.997055 0.000000 0.000000 51.485352 -0.723925 -0.580074 -32.433472 -0.627813 -0.449299 -28.256571 0.000000 0.000000 -22.852613 -0.055620 -0.001550 3.115754 -6.667243 -4.614525 -64.407890 -62.459431 -16.996565 -122.018135 -0.008075 53.997295 -7.162754 2.396917 4.970593 -3.256570 6.846791 -4.679783 64.438309 62.420593 -16.958361 121.995705 -0.005257 54.000729 7.259121 -2.329140 4.885079 -114.453232 57.080845 -36.694439 132.438538 -2.368854 -0.184923 17.525476 1.718366 4.884031 -114.462746 -57.084763 36.701576 132.438522 2.370645 0.180300 17.525291 -1.722353 -4.886950 
19.995882 10.922924 16.874409 70.997055 0.000000 0.000000 51.485352 -0.723925 -0.580074 -32.433472 -0.627813 -0.449299 -28.006388 0.000000 0.000000 -22.822611 -0.055615 -0.001548 2.929593 -6.739243 -4.352555 -64.189125 -62.435436 -17.202667 -122.018135 -0.008075 53.997295 -7.150602 2.255869 5.102043 -3.062655 6.907624 -4.414109 64.217369 62.398682 -17.166943 121.995705 -0.005257 54.000729 7.241058 -2.192393 5.021655 -114.453224 57.080841 -36.694435 132.438538 -2.368854 -0.184923 17.525476 1.718366 4.884031 -114.462746 -57.084763 36.701576 132.438522 2.370645 0.180300 17.525291 -1.722353 -4.886950 
19.995882 10.922924 16.891529 70.997055 0.000000 0.000000 51.485352 -0.723925 -0.580074 -32.433472 -0.627813 -0.449299 -27.756203 0.000000 0.000000 -22.792618 -0.055611 -0.001545 2.743751 -6.812083 -4.090802 -63.970699 -62.411064 -17.408400 -122.018135 -0.008075 53.997295 -7.138776 2.114798 5.233447 -2.869016 6.969346 -4.148631 63.996735 62.376369 -17.375175 121.995705 -0.005257 54.000729 7.223325 -2.055606 5.158171 -114.453232 57.080845 -36.694439 132.438538 -2.368854 -0.184923 17.525476 1.718366 4.884031 -114.462746 -57.084763 36.701576 132.438522 2.370645 0.180300 17.525291 -1.722353 -4.886950 
19.995882 10.922924 16.908651 70.997055 0.000000 0.000000 51.485352 -0.723925 -0.580074 -32.433472 -0.627813 -0.449299 -27.506039 0.000000 0.000000 -22.762619 -0.055607 -0.001543 2.558235 -6.885758 -3.829272 -63.752651 -62.386322 -17.613745 -122.018135 -0.008075 53.997295 -7.127276 1.973704 5.364808 -2.675660 7.031951 -3.883354 63.776489 62.353714 -17.583065 121.995705 -0.005257 54.000729 7.205918 -1.918781 5.294630 -114.453232 57.080845 -36.694439 132.438538 -2.368854 -0.184923 17.525476 1.718366 4.884031 -114.462746 -57.084763 36.701576 132.438522 2.370645 0.180300 17.525291 -1.722353 -4.886950 
19.995882 10.922924 16.925772 70.997055 0.000000 0.000000 51.485352 -0.723925 -0.580074 -32.433472 -0.627813 -0.449299 -27.255884 0.000000 0.000000 -22.732624 -0.055603 -0.001540 2.373051 -6.960263 -3.567971 -63.534981 -62.361233 -17.818724 -122.018135 -0.008075 53.997295 -7.116101 1.832588 5.496125 -2.482594 7.095437 -3.618286 63.556576 62.330681 -17.790607 121.995705 -0.005257 54.000729 7.188841 -1.781920 5.431033 -114.453232 57.080845 -36.694439 132.438538 -2.368854 -0.184923 17.525476 1.718366 4.884031 -114.462746 -57.084763 36.701576 132.438522 2.370645 0.180300 17.525291 -1.722353 -4.886950 
19.995882 10.922924 16.942894 70.997055 0.000000 0.000000 51.485352 -0.723925 -0.580074 -32.433472 -0.627813 -0.449299 -27.005743 0.000000 0.000000 -22.702631 -0.055599 -0.001537 2.188205 -7.035599 -3.306906 -63.317673 -62.335762 -18.023323 -122.018135 -0.008075 53.997295 -7.105248 1.691453 5.627397 -2.289824 7.159800 -3.353433 63.337002 62.307281 -17.997805 121.995705 -0.005257 54.000729 7.172089 -1.645024 5.567378 -114.453232 57.080845 -36.694439 132.438538 -2.368854 -0.184923 17.525476 1.718366 4.884031 -114.462746 -57.084763 36.701576 132.438522 2.370645 0.180300 17.525291 -1.722353 -4.886950 
19.995882 10.922924 16.960014 70.997055 0.000000 0.000000 51.485352 -0.723925 -0.580074 -32.433472 -0.627813 -0.449299 -26.755623 0.000000 0.000000 -22.672634 -0.055595 -0.001535 2.003703 -7.111756 -3.046082 -63.100800 -62.309967 -18.227531 -122.018135 -0.008075 53.997295 -7.094724 1.550300 5.758630 -2.097357 7.225035 -3.088801 63.117813 62.283527 -18.204638 121.995705 -0.005257 54.000729 7.155667 -1.508095 5.703670 -114.453232 57.080845 -36.694439 132.438538 -2.368854 -0.184923 17.525476 1.718366 4.884031 -114.462746 -57.084763 36.701576 132.438522 2.370645 0.180300 17.525291 -1.722353 -4.886950 
19.995882 10.922924 16.977135 70.997055 0.000000 0.000000 51.485352 -0.723925 -0.580074 -32.433472 -0.627813 -0.449299 -26.505531 0.000000 0.000000 -22.642633 -0.055590 -0.001532 1.819552 -7.188733 -2.785506 -62.884281 -62.283787 -18.431339 -122.018135 -0.008075 53.997295 -7.084521 1.409131 5.889821 -1.905201 7.291140 -2.824399 62.898945 62.259361 -18.411089 121.995705 -0.005257 54.000729 7.139572 -1.371134 5.839905 -114.453232 57.080845 -36.694439 132.438538 -2.368854 -0.184923 17.525476 1.718366 4.884031 -114.462746 -57.084763 36.701576 132.438522 2.370645 0.180300 17.525291 -1.722353 -4.886950 
19.995882 10.922924 16.994257 70.997055 0.000000 0.000000 51.485352 -0.723925 -0.580074 -32.433472 -0.627813 -0.449299 -26.255459 0.000000 0.000000 -22.612640 -0.055586 -0.001530 1.635759 -7.266528 -2.525184 -62.668159 -62.257271 -18.634777 -122.018135 -0.008075 53.997295 -7.074646 1.267946 6.020972 -1.713362 7.358111 -2.560232 62.680477 62.234867 -18.617189 121.995705 -0.005257 54.000729 7.123805 -1.234144 5.976089 -114.453232 57.080845 -36.694439 132.438538 -2.368854 -0.184923 17.525476 1.718366 4.884031 -114.462746 -57.084763 36.701576 132.438522 2.370645 0.180300 17.525291 -1.722353 -4.886950 
19.995882 10.922924 17.011377 70.997055 0.000000 0.000000 51.485352 -0.723925 -0.580074 -32.433472 -0.627813 -0.449299 -26.005415 0.000000 0.000000 -22.582649 -0.055582 -0.001527 1.452327 -7.345131 -2.265120 -62.452438 -62.230373 -18.837793 -122.018135 -0.008075 53.997295 -7.065093 1.126748 6.152085 -1.521847 7.425944 -2.296307 62.462360 62.209991 -18.822910 121.995705 -0.005257 54.000729 7.108366 -1.097125 6.112220 -114.453232 57.080845 -36.694439 132.438538 -2.368854 -0.184923 17.525476 1.718366 4.884031 -114.462746 -57.084763 36.701576 132.438522 2.370645 0.180300 17.525291 -1.722353 -4.886950 
19.995882 10.922924 17.028498 70.997055 0.000000 0.000000 51.485352 -0.723925 -0.580074 -32.433472 -0.627813 -0.449299 -25.755400 0.000000 0.000000 -22.552654 -0.055578 -0.001524 1.269265 -7.424542 -2.005322 -62.237106 -62.203129 -19.040413 -122.018135 -0.008075 53.997295 -7.055864 0.985538 6.283156 -1.330663 7.494635 -2.032631 62.244663 62.184776 -19.028259 121.995705 -0.005257 54.000729 7.093252 -0.960078 6.248296 -114.453232 57.080845 -36.694439 132.438538 -2.368854 -0.184923 17.525476 1.718366 4.884031 -114.462746 -57.084763 36.701576 132.438522 2.370645 0.180300 17.525291 -1.722353 -4.886950 
19.995882 10.922924 17.045620 70.997055 0.000000 0.000000 51.485352 -0.723925 -0.580074 -32.433472 -0.627813 -0.449299 -25.505404 0.000000 0.000000 -22.522661 -0.055574 -0.001522 1.086577 -7.504756 -1.745795 -62.022190 -62.175522 -19.242619 -122.018135 -0.008075 53.997295 -7.046960 0.844318 6.414193 -1.139816 7.564182 -1.769210 62.027317 62.159176 -19.233221 121.995705 -0.005257 54.000729 7.078466 -0.823007 6.384324 -114.453232 57.080845 -36.694439 132.438538 -2.368854 -0.184923 17.525476 1.718366 4.884031 -114.462746 -57.084763 36.701576 132.438522 2.370645 0.180300 17.525291 -1.722353 -4.886950 
19.995882 10.922924 17.062740 70.997055 0.000000 0.000000 51.485352 -0.723925 -0.580074 -32.433472 -0.627813 -0.449299 -25.255451 0.000000 0.000000 -22.492666 -0.055570 -0.001519 0.904270 -7.585771 -1.486547 -61.807686 -62.147572 -19.444412 -122.018135 -0.008075 53.997295 -7.038380 0.703089 6.545192 -0.949313 7.634576 -1.506051 61.810352 62.133213 -19.437788 121.995705 -0.005257 54.000729 7.064009 -0.685912 6.520300 -114.453232 57.080845 -36.694439 132.438538 -2.368854 -0.184923 17.525476 1.718366 4.884031 -114.462746 -57.084763 36.701576 132.438522 2.370645 0.180300 17.525291 -1.722353 -4.886950 
19.995882 10.922924 17.079861 70.997055 0.000000 0.000000 51.485352 -0.723925 -0.580074 -32.433472 -0.627813 -0.449299 -25.005535 0.000000 0.000000 -22.462673 -0.055565 -0.001517 0.722351 -7.667579 -1.227580 -61.593616 -62.119286 -19.645796 -122.018135 -0.008075 53.997295 -7.030123 0.561853 6.676154 -0.759161 7.705817 -1.243161 61.593792 62.106903 -19.641968 121.995705 -0.005257 54.000729 7.049878 -0.548795 6.656226 -114.453232 57.080845 -36.694439 132.438538 -2.368854 -0.184923 17.525476 1.718366 4.884031 -114.462746 -57.084763 36.701576 132.438522 2.370645 0.180300 17.525291 -1.722353 -4.886950 
19.995882 10.922924 17.096983 70.997055 0.000000 0.000000 51.485352 -0.723925 -0.580074 -32.433472 -0.627813 -0.449299 -24.755653 0.000000 0.000000 -22.432684 -0.055561 -0.001514 0.540823 -7.750175 -0.968902 -61.379951 -62.090630 -19.846746 -122.018135 -0.008075 53.997295 -7.022191 0.420611 6.807083 -0.569365 7.777900 -0.980545 61.377617 62.080212 -19.845736 121.995705 -0.005257 54.000729 7.036073 -0.411657 6.792104 -114.453232 57.080845 -36.694439 132.438538 -2.368854 -0.184923 17.525476 1.718366 4.884031 -114.462746 -57.084763 36.701576 132.438522 2.370645 0.180300 17.525291 -1.722353 -4.886950 
19.995882 10.922924 17.114103 70.997055 0.000000 0.000000 51.485352 -0.723925 -0.580074 -32.433472 -0.627813 -0.449299 -24.505814 0.000000 0.000000 -22.402687 -0.055557 -0.001511 0.359694 -7.833555 -0.710518 -61.166702 -62.061626 -20.047285 -122.018135 -0.008075 53.997295 -7.014581 0.279365 6.937976 -0.379932 7.850821 -0.718210 61.161884 62.053192 -20.049116 121.995705 -0.005257 54.000729 7.022594 -0.274500 6.927931 -114.453232 57.080845 -36.694439 132.438538 -2.368854 -0.184923 17.525476 1.718366 4.884031 -114.462746 -57.084763 36.701576 132.438522 2.370645 0.180300 17.525291 -1.722353 -4.886950 
19.995882 10.922924 17.131226 70.997055 0.000000 0.000000 51.485352 -0.723925 -0.580074 -32.433472 -0.627813 -0.449299 -24.256021 0.000000 0.000000 -22.372698 -0.055553 -0.001509 0.178969 -7.917719 -0.452434 -60.953899 -62.032276 -20.247379 -122.018135 -0.008075 53.997295 -7.007296 0.138116 7.068837 -0.190869 7.924573 -0.456162 60.946495 62.025784 -20.252083 121.995705 -0.005257 54.000729 7.009444 -0.137325 7.063714 -114.453232 57.080853 -36.694447 132.438538 -2.368854 -0.184923 17.525476 1.718366 4.884031 -114.462746 -57.084763 36.701576 132.438522 2.370645 0.180300 17.525291 -1.722353 -4.886950 
